<svg width="527" height="454" viewBox="0 0 527 454" fill="none" xmlns="http://www.w3.org/2000/svg">
<g filter="url(#filter0_d_203_29)">
<path d="M252.52 18.1424C253.389 15.1883 257.13 14.2827 259.253 16.5122L304.803 64.3291C306.927 66.5586 305.841 70.2512 302.848 70.9757L238.663 86.5145C235.67 87.239 233.015 84.452 233.884 81.498L252.52 18.1424Z" fill="#FFD600"/>
</g>
<g filter="url(#filter1_d_203_29)">
<path d="M257.785 35.5321C259.51 34.7288 260.611 34.4622 262.513 34.3877C272.506 33.9958 267.064 60.8181 267.064 60.8181L265.883 61.1042C265.883 61.1042 248.719 39.7544 257.785 35.5321Z" fill="black"/>
</g>
<g filter="url(#filter2_d_203_29)">
<circle cx="267.574" cy="65.6044" r="3.18124" transform="rotate(-13.609 267.574 65.6044)" fill="black"/>
</g>
<g filter="url(#filter3_d_203_29)">
<path d="M27.1958 263.747C26.8194 260.691 29.8924 258.373 32.7273 259.575L72.5952 276.481C75.4301 277.683 75.9006 281.503 73.4421 283.357L38.8677 309.431C36.4092 311.285 32.8656 309.782 32.4892 306.726L27.1958 263.747Z" fill="#FFD600"/>
</g>
<g filter="url(#filter4_d_203_29)">
<path d="M35.3552 271.71C36.2593 270.693 36.9065 270.205 38.1336 269.615C44.5832 266.517 48.6354 285.674 48.6354 285.674L47.9408 286.197C47.9408 286.197 30.6033 277.06 35.3552 271.71Z" fill="black"/>
</g>
<g filter="url(#filter5_d_203_29)">
<circle cx="50.3307" cy="288.671" r="2.27597" transform="rotate(-37.0214 50.3307 288.671)" fill="black"/>
</g>
<g filter="url(#filter6_d_203_29)">
<path fill-rule="evenodd" clip-rule="evenodd" d="M218.941 64.4805C271.818 59.7312 318.355 90.9715 360.345 123.469C410.747 162.476 475.591 201.213 477.925 264.917C480.284 329.317 426.92 384.946 371.104 417.128C325.413 443.472 271.518 418.345 218.941 414.24C173.501 410.692 122.643 425.638 88.8111 395.087C54.1354 363.773 51.3254 311.592 53.5861 264.917C55.7193 220.875 72.782 180.785 100.838 146.777C132.583 108.296 169.264 68.9424 218.941 64.4805Z" fill="#EED584"/>
</g>
<g filter="url(#filter7_d_203_29)">
<path d="M375.729 418C375.729 419.381 376.849 420.5 378.229 420.5C379.61 420.5 380.729 419.381 380.729 418H375.729ZM380.729 339.455V336.955H375.729V339.455H380.729ZM113.721 418C113.721 419.381 114.84 420.5 116.221 420.5C117.601 420.5 118.721 419.381 118.721 418H113.721ZM118.721 341.098V338.598H113.721V341.098H118.721ZM88.2443 90.7982L86.3556 92.4363L88.2443 90.7982ZM94.4319 85.4405L96.3205 83.8025L94.4319 85.4405ZM84.9004 74.4509L83.0118 76.0889L84.9004 74.4509ZM78.7128 79.8087L80.6014 78.1706L78.7128 79.8087ZM112.982 72.8048L115.479 72.6901L112.982 72.8048ZM121.161 72.4297L118.663 72.5444L121.161 72.4297ZM120.494 57.903L122.991 57.7883V57.7883L120.494 57.903ZM112.314 58.2781L109.817 58.3929V58.3929L112.314 58.2781ZM141.796 80.5676L139.874 78.9692V78.9692L141.796 80.5676ZM148.094 85.7958L146.172 84.1974L148.094 85.7958ZM157.395 74.6108L159.317 76.2093L157.395 74.6108ZM151.097 69.3826L153.019 70.9811V70.9811L151.097 69.3826ZM352.322 87.5194L350.433 89.1574L352.322 87.5194ZM358.509 82.1616L360.398 80.5236V80.5236L358.509 82.1616ZM348.978 71.172L347.089 72.8101L348.978 71.172ZM342.79 76.5298L344.679 74.8918L344.679 74.8918L342.79 76.5298ZM379.696 75.8257L382.193 75.711V75.711L379.696 75.8257ZM387.875 75.4506L385.378 75.5653V75.5653L387.875 75.4506ZM387.208 60.9239L389.705 60.8092V60.8092L387.208 60.9239ZM379.029 61.299L376.531 61.4138V61.4138L379.029 61.299ZM405.944 79.7244L407.866 81.3228L405.944 79.7244ZM412.241 84.9526L410.319 83.3542V83.3542L412.241 84.9526ZM421.542 73.7676L423.464 75.3661V75.3661L421.542 73.7676ZM415.245 68.5394L413.322 66.941V66.941L415.245 68.5394ZM76.1004 157.889H424.9V152.889H76.1004V157.889ZM435.5 168.479V235.563H440.5V168.479H435.5ZM424.9 246.153H76.1004V251.153H424.9V246.153ZM65.5 235.563V168.479H60.5V235.563H65.5ZM76.1004 246.153C70.244 246.153 65.5 241.41 65.5 235.563H60.5C60.5 244.175 67.4865 251.153 76.1004 251.153V246.153ZM435.5 235.563C435.5 241.41 430.756 246.153 424.9 246.153V251.153C433.514 251.153 440.5 244.175 440.5 235.563H435.5ZM424.9 157.889C430.756 157.889 435.5 162.632 435.5 168.479H440.5C440.5 159.867 433.514 152.889 424.9 152.889V157.889ZM76.1004 152.889C67.4865 152.889 60.5 159.867 60.5 168.479H65.5C65.5 162.632 70.244 157.889 76.1004 157.889V152.889ZM103.939 265.879H388.873V260.879H103.939V265.879ZM399.474 276.468V325.554H404.474V276.468H399.474ZM388.873 336.144H103.939V341.144H388.873V336.144ZM93.3384 325.554V276.468H88.3384V325.554H93.3384ZM103.939 336.144C98.0825 336.144 93.3384 331.401 93.3384 325.554H88.3384C88.3384 334.166 95.3249 341.144 103.939 341.144V336.144ZM399.474 325.554C399.474 331.401 394.73 336.144 388.873 336.144V341.144C397.487 341.144 404.474 334.166 404.474 325.554H399.474ZM388.873 265.879C394.73 265.879 399.474 270.622 399.474 276.468H404.474C404.474 267.856 397.487 260.879 388.873 260.879V265.879ZM103.939 260.879C95.3249 260.879 88.3384 267.856 88.3384 276.468H93.3384C93.3384 270.622 98.0825 265.879 103.939 265.879V260.879ZM121.996 155.389V131.643H116.996V155.389H121.996ZM118.721 263.379V247.619H113.721V263.379H118.721ZM380.729 263.379V248.653H375.729V263.379H380.729ZM380.729 418V339.455H375.729V418H380.729ZM118.721 418L118.721 341.098H113.721L113.721 418H118.721ZM137.333 110.393C137.333 120.758 128.923 129.164 118.544 129.164V134.164C131.68 134.164 142.333 123.524 142.333 110.393H137.333ZM118.544 129.164C108.166 129.164 99.7562 120.758 99.7562 110.393H94.7562C94.7562 123.524 105.409 134.164 118.544 134.164V129.164ZM99.7562 110.393C99.7562 100.029 108.166 91.6227 118.544 91.6227V86.6227C105.409 86.6227 94.7562 97.2633 94.7562 110.393H99.7562ZM118.544 91.6227C128.923 91.6227 137.333 100.029 137.333 110.393H142.333C142.333 97.2633 131.68 86.6227 118.544 86.6227V91.6227ZM390.687 155.389V131.643H385.687V155.389H390.687ZM406.024 110.393C406.024 120.758 397.614 129.164 387.236 129.164V134.164C400.372 134.164 411.024 123.524 411.024 110.393H406.024ZM387.236 129.164C376.857 129.164 368.448 120.758 368.448 110.393H363.448C363.448 123.524 374.1 134.164 387.236 134.164V129.164ZM368.448 110.393C368.448 100.029 376.857 91.6227 387.236 91.6227V86.6227C374.1 86.6227 363.448 97.2633 363.448 110.393H368.448ZM387.236 91.6227C397.614 91.6227 406.024 100.029 406.024 110.393H411.024C411.024 97.2633 400.372 86.6227 387.236 86.6227V91.6227ZM83.0118 76.0889L92.5433 87.0785L96.3205 83.8025L86.7891 72.8129L83.0118 76.0889ZM90.1329 89.1602L80.6014 78.1706L76.8242 81.4467L86.3556 92.4363L90.1329 89.1602ZM92.3827 89.3207C91.717 89.8971 90.7093 89.8248 90.1329 89.1602L86.3556 92.4363C88.7407 95.1862 92.904 95.4832 95.6556 93.1006L92.3827 89.3207ZM92.5433 87.0785C93.1186 87.7419 93.0472 88.7453 92.3827 89.3207L95.6556 93.1006C98.4085 90.7169 98.7066 86.5536 96.3205 83.8025L92.5433 87.0785ZM80.762 75.9285C81.4277 75.3521 82.4354 75.4243 83.0118 76.0889L86.7891 72.8129C84.404 70.063 80.2407 69.766 77.4891 72.1486L80.762 75.9285ZM77.4891 72.1486C74.7362 74.5322 74.4381 78.6956 76.8242 81.4467L80.6014 78.1706C80.0261 77.5072 80.0975 76.5038 80.762 75.9285L77.4891 72.1486ZM117.996 58.0178L118.663 72.5444L123.658 72.315L122.991 57.7883L117.996 58.0178ZM115.479 72.6901L114.812 58.1634L109.817 58.3929L110.484 72.9196L115.479 72.6901ZM117.144 74.2061C116.263 74.2465 115.519 73.5657 115.479 72.6901L110.484 72.9196C110.651 76.5574 113.738 79.3676 117.374 79.2009L117.144 74.2061ZM118.663 72.5444C118.704 73.4199 118.026 74.1657 117.144 74.2061L117.374 79.2009C121.01 79.0341 123.825 75.953 123.658 72.315L118.663 72.5444ZM116.331 56.5018C117.212 56.4613 117.956 57.1421 117.996 58.0178L122.991 57.7883C122.824 54.1504 119.738 51.3403 116.102 51.507L116.331 56.5018ZM116.102 51.507C112.466 51.6738 109.65 54.7549 109.817 58.3929L114.812 58.1634C114.771 57.2879 115.45 56.5422 116.331 56.5018L116.102 51.507ZM155.473 73.0124L146.172 84.1974L150.016 87.3943L159.317 76.2093L155.473 73.0124ZM143.718 82.1661L153.019 70.9811L149.175 67.7842L139.874 78.9692L143.718 82.1661ZM143.926 84.4044C143.249 83.8429 143.157 82.8412 143.718 82.1661L139.874 78.9692C137.546 81.7693 137.93 85.9255 140.732 88.2515L143.926 84.4044ZM146.172 84.1974C145.609 84.8737 144.603 84.9669 143.926 84.4044L140.732 88.2515C143.532 90.5764 147.689 90.1932 150.016 87.3943L146.172 84.1974ZM155.265 70.774C155.942 71.3356 156.034 72.3373 155.473 73.0124L159.317 76.2093C161.645 73.4092 161.261 69.2529 158.459 66.927L155.265 70.774ZM158.459 66.927C155.659 64.6021 151.502 64.9853 149.175 67.7842L153.019 70.9811C153.582 70.3047 154.588 70.2115 155.265 70.774L158.459 66.927ZM347.089 72.8101L356.621 83.7997L360.398 80.5236L350.867 69.534L347.089 72.8101ZM354.21 85.8814L344.679 74.8918L340.902 78.1678L350.433 89.1574L354.21 85.8814ZM356.46 86.0418C355.795 86.6182 354.787 86.546 354.21 85.8814L350.433 89.1574C352.818 91.9073 356.982 92.2043 359.733 89.8217L356.46 86.0418ZM356.621 83.7997C357.196 84.463 357.125 85.4665 356.46 86.0418L359.733 89.8217C362.486 87.4381 362.784 83.2747 360.398 80.5236L356.621 83.7997ZM344.84 72.6496C345.505 72.0732 346.513 72.1455 347.089 72.8101L350.867 69.534C348.482 66.7841 344.318 66.4871 341.567 68.8697L344.84 72.6496ZM341.567 68.8697C338.814 71.2534 338.516 75.4167 340.902 78.1678L344.679 74.8918C344.104 74.2284 344.175 73.225 344.84 72.6496L341.567 68.8697ZM384.711 61.0386L385.378 75.5653L390.373 75.3359L389.705 60.8092L384.711 61.0386ZM382.193 75.711L381.526 61.1843L376.531 61.4138L377.199 75.9405L382.193 75.711ZM383.859 77.227C382.978 77.2674 382.234 76.5866 382.193 75.711L377.199 75.9405C377.366 79.5784 380.452 82.3885 384.088 82.2218L383.859 77.227ZM385.378 75.5653C385.418 76.4409 384.74 77.1866 383.859 77.227L384.088 82.2218C387.724 82.055 390.54 78.9739 390.373 75.3359L385.378 75.5653ZM383.045 59.5227C383.927 59.4822 384.67 60.163 384.711 61.0387L389.705 60.8092C389.538 57.1713 386.452 54.3612 382.816 54.5279L383.045 59.5227ZM382.816 54.5279C379.18 54.6947 376.364 57.7757 376.531 61.4138L381.526 61.1843C381.486 60.3089 382.164 59.5631 383.045 59.5227L382.816 54.5279ZM419.62 72.1692L410.319 83.3542L414.163 86.5511L423.464 75.3661L419.62 72.1692ZM407.866 81.3228L417.167 70.1379L413.322 66.941L404.021 78.1259L407.866 81.3228ZM408.073 83.5612C407.397 82.9997 407.304 81.9979 407.866 81.3228L404.021 78.1259C401.693 80.9261 402.078 85.0823 404.879 87.4082L408.073 83.5612ZM410.319 83.3542C409.757 84.0305 408.751 84.1237 408.073 83.5612L404.879 87.4082C407.68 89.7332 411.836 89.3499 414.163 86.5511L410.319 83.3542ZM419.413 69.9308C420.089 70.4923 420.181 71.4941 419.62 72.1692L423.464 75.3661C425.793 72.566 425.408 68.4097 422.606 66.0838L419.413 69.9308ZM422.606 66.0838C419.806 63.7588 415.65 64.1421 413.322 66.941L417.167 70.1379C417.729 69.4615 418.735 69.3683 419.413 69.9308L422.606 66.0838ZM117.31 368.916L202.288 341.019L200.728 336.269L115.75 364.165L117.31 368.916ZM379.088 367.317L294.303 336.296L292.585 340.992L377.37 372.013L379.088 367.317ZM68.5267 246.215L144.235 157.007L140.423 153.771L64.7145 242.98L68.5267 246.215ZM139.319 250.25L216.738 156.986L212.891 153.792L135.472 247.056L139.319 250.25ZM211.881 250.271L291.115 157.008L287.304 153.77L208.071 247.034L211.881 250.271ZM280.839 250.264L359.468 157L355.645 153.778L277.016 247.041L280.839 250.264ZM358.271 250.249L433.756 159.207L429.907 156.016L354.422 247.057L358.271 250.249ZM340.202 340.143L396.118 265.528L392.116 262.529L336.201 337.145L340.202 340.143ZM280.924 340.149L337.162 265.533L333.169 262.524L276.931 337.139L280.924 340.149ZM222.258 340.144L278.213 265.528L274.213 262.529L218.258 337.144L222.258 340.144ZM160.571 340.135L215.993 265.519L211.979 262.538L156.558 337.153L160.571 340.135ZM101.351 339.166L157.028 265.536L153.04 262.521L97.3631 336.15L101.351 339.166Z" fill="#262222"/>
</g>
<g filter="url(#filter8_d_203_29)">
<rect x="100" y="91" width="37" height="38" rx="14.5" fill="#FFD600"/>
</g>
<g filter="url(#filter9_d_203_29)">
<rect x="369" y="91" width="38" height="38" rx="14.5" fill="#FFD600"/>
</g>
<g filter="url(#filter10_d_203_29)">
<rect x="79.4207" y="76.2236" width="3.2315" height="17.7587" rx="1.61575" transform="rotate(-41.4916 79.4207 76.2236)" fill="#FFD600"/>
</g>
<g filter="url(#filter11_d_203_29)">
<rect x="114.418" y="56.4239" width="3.02428" height="17.7587" rx="1.51214" transform="rotate(-3.86888 114.418 56.4239)" fill="#FFD600"/>
</g>
<g filter="url(#filter12_d_203_29)">
<rect x="153.961" y="69.6043" width="3.02428" height="17.7587" rx="1.51214" transform="rotate(39.8555 153.961 69.6043)" fill="#FFD600"/>
</g>
<g filter="url(#filter13_d_203_29)">
<rect x="417.852" y="68.3938" width="3.21359" height="17.7587" rx="1.6068" transform="rotate(39.8555 417.852 68.3938)" fill="#FFD600"/>
</g>
<g filter="url(#filter14_d_203_29)">
<rect x="381.051" y="58.8826" width="3.21359" height="17.7587" rx="1.6068" transform="rotate(-3.08405 381.051 58.8826)" fill="#FFD600"/>
</g>
<g filter="url(#filter15_d_203_29)">
<rect x="343.525" y="72.8466" width="3.21359" height="17.7587" rx="1.6068" transform="rotate(-39.2169 343.525 72.8466)" fill="#FFD600"/>
</g>
<g filter="url(#filter16_d_203_29)">
<path d="M478.576 283.959C481.024 282.09 484.576 283.572 484.971 286.625L493.434 352.12C493.829 355.174 490.769 357.51 487.927 356.325L426.975 330.907C424.133 329.722 423.64 325.904 426.088 324.036L478.576 283.959Z" fill="#FFD600"/>
</g>
<g filter="url(#filter17_d_203_29)">
<path d="M472.541 301.097C474.407 301.469 475.453 301.905 477.03 302.969C485.322 308.561 465.074 326.976 465.074 326.976L463.952 326.508C463.952 326.508 462.733 299.141 472.541 301.097Z" fill="black"/>
</g>
<g filter="url(#filter18_d_203_29)">
<circle cx="462.655" cy="331.137" r="3.18124" transform="rotate(22.637 462.655 331.137)" fill="black"/>
</g>
<circle cx="50" cy="369" r="23" stroke="#1E1E1E" stroke-width="4"/>
<path d="M56 40.5C56 53.5162 45.6654 64 33 64C20.3346 64 10 53.5162 10 40.5C10 27.4838 20.3346 17 33 17C45.6654 17 56 27.4838 56 40.5Z" stroke="#EEC800" stroke-opacity="0.99" stroke-width="4"/>
<rect x="475.11" y="119.666" width="33.5536" height="33.5536" rx="4" transform="rotate(25.4969 475.11 119.666)" stroke="#273F6C" stroke-width="4"/>
<defs>
<filter id="filter0_d_203_29" x="227.717" y="9.26905" width="86.193" height="85.3615" filterUnits="userSpaceOnUse" color-interpolation-filters="sRGB">
<feFlood flood-opacity="0" result="BackgroundImageFix"/>
<feColorMatrix in="SourceAlpha" type="matrix" values="0 0 0 0 0 0 0 0 0 0 0 0 0 0 0 0 0 0 127 0" result="hardAlpha"/>
<feOffset dx="1" dy="1"/>
<feGaussianBlur stdDeviation="3.5"/>
<feComposite in2="hardAlpha" operator="out"/>
<feColorMatrix type="matrix" values="0 0 0 0 1 0 0 0 0 0.84 0 0 0 0 0 0 0 0 0.5 0"/>
<feBlend mode="normal" in2="BackgroundImageFix" result="effect1_dropShadow_203_29"/>
<feBlend mode="normal" in="SourceGraphic" in2="effect1_dropShadow_203_29" result="shape"/>
</filter>
<filter id="filter1_d_203_29" x="251.142" y="30.3834" width="21.4014" height="34.7208" filterUnits="userSpaceOnUse" color-interpolation-filters="sRGB">
<feFlood flood-opacity="0" result="BackgroundImageFix"/>
<feColorMatrix in="SourceAlpha" type="matrix" values="0 0 0 0 0 0 0 0 0 0 0 0 0 0 0 0 0 0 127 0" result="hardAlpha"/>
<feOffset/>
<feGaussianBlur stdDeviation="2"/>
<feComposite in2="hardAlpha" operator="out"/>
<feColorMatrix type="matrix" values="0 0 0 0 0 0 0 0 0 0 0 0 0 0 0 0 0 0 0.69 0"/>
<feBlend mode="normal" in2="BackgroundImageFix" result="effect1_dropShadow_203_29"/>
<feBlend mode="normal" in="SourceGraphic" in2="effect1_dropShadow_203_29" result="shape"/>
</filter>
<filter id="filter2_d_203_29" x="260.392" y="58.4225" width="14.364" height="14.3639" filterUnits="userSpaceOnUse" color-interpolation-filters="sRGB">
<feFlood flood-opacity="0" result="BackgroundImageFix"/>
<feColorMatrix in="SourceAlpha" type="matrix" values="0 0 0 0 0 0 0 0 0 0 0 0 0 0 0 0 0 0 127 0" result="hardAlpha"/>
<feOffset/>
<feGaussianBlur stdDeviation="2"/>
<feComposite in2="hardAlpha" operator="out"/>
<feColorMatrix type="matrix" values="0 0 0 0 0 0 0 0 0 0 0 0 0 0 0 0 0 0 0.69 0"/>
<feBlend mode="normal" in2="BackgroundImageFix" result="effect1_dropShadow_203_29"/>
<feBlend mode="normal" in="SourceGraphic" in2="effect1_dropShadow_203_29" result="shape"/>
</filter>
<filter id="filter3_d_203_29" x="21.1643" y="253.252" width="61.87" height="64.99" filterUnits="userSpaceOnUse" color-interpolation-filters="sRGB">
<feFlood flood-opacity="0" result="BackgroundImageFix"/>
<feColorMatrix in="SourceAlpha" type="matrix" values="0 0 0 0 0 0 0 0 0 0 0 0 0 0 0 0 0 0 127 0" result="hardAlpha"/>
<feOffset dx="1" dy="1"/>
<feGaussianBlur stdDeviation="3.5"/>
<feComposite in2="hardAlpha" operator="out"/>
<feColorMatrix type="matrix" values="0 0 0 0 1 0 0 0 0 0.84 0 0 0 0 0 0 0 0 0.5 0"/>
<feBlend mode="normal" in2="BackgroundImageFix" result="effect1_dropShadow_203_29"/>
<feBlend mode="normal" in="SourceGraphic" in2="effect1_dropShadow_203_29" result="shape"/>
</filter>
<filter id="filter4_d_203_29" x="30.5306" y="265.276" width="22.1047" height="24.9214" filterUnits="userSpaceOnUse" color-interpolation-filters="sRGB">
<feFlood flood-opacity="0" result="BackgroundImageFix"/>
<feColorMatrix in="SourceAlpha" type="matrix" values="0 0 0 0 0 0 0 0 0 0 0 0 0 0 0 0 0 0 127 0" result="hardAlpha"/>
<feOffset/>
<feGaussianBlur stdDeviation="2"/>
<feComposite in2="hardAlpha" operator="out"/>
<feColorMatrix type="matrix" values="0 0 0 0 0 0 0 0 0 0 0 0 0 0 0 0 0 0 0.69 0"/>
<feBlend mode="normal" in2="BackgroundImageFix" result="effect1_dropShadow_203_29"/>
<feBlend mode="normal" in="SourceGraphic" in2="effect1_dropShadow_203_29" result="shape"/>
</filter>
<filter id="filter5_d_203_29" x="44.0547" y="282.395" width="12.5521" height="12.5522" filterUnits="userSpaceOnUse" color-interpolation-filters="sRGB">
<feFlood flood-opacity="0" result="BackgroundImageFix"/>
<feColorMatrix in="SourceAlpha" type="matrix" values="0 0 0 0 0 0 0 0 0 0 0 0 0 0 0 0 0 0 127 0" result="hardAlpha"/>
<feOffset/>
<feGaussianBlur stdDeviation="2"/>
<feComposite in2="hardAlpha" operator="out"/>
<feColorMatrix type="matrix" values="0 0 0 0 0 0 0 0 0 0 0 0 0 0 0 0 0 0 0.69 0"/>
<feBlend mode="normal" in2="BackgroundImageFix" result="effect1_dropShadow_203_29"/>
<feBlend mode="normal" in="SourceGraphic" in2="effect1_dropShadow_203_29" result="shape"/>
</filter>
<filter id="filter6_d_203_29" x="30" y="41" width="473" height="413" filterUnits="userSpaceOnUse" color-interpolation-filters="sRGB">
<feFlood flood-opacity="0" result="BackgroundImageFix"/>
<feColorMatrix in="SourceAlpha" type="matrix" values="0 0 0 0 0 0 0 0 0 0 0 0 0 0 0 0 0 0 127 0" result="hardAlpha"/>
<feOffset dx="1" dy="1"/>
<feGaussianBlur stdDeviation="12"/>
<feComposite in2="hardAlpha" operator="out"/>
<feColorMatrix type="matrix" values="0 0 0 0 1 0 0 0 0 0.84 0 0 0 0 0 0 0 0 0.5 0"/>
<feBlend mode="normal" in2="BackgroundImageFix" result="effect1_dropShadow_203_29"/>
<feBlend mode="normal" in="SourceGraphic" in2="effect1_dropShadow_203_29" result="shape"/>
</filter>
<filter id="filter7_d_203_29" x="49.5" y="40.5" width="402" height="391" filterUnits="userSpaceOnUse" color-interpolation-filters="sRGB">
<feFlood flood-opacity="0" result="BackgroundImageFix"/>
<feColorMatrix in="SourceAlpha" type="matrix" values="0 0 0 0 0 0 0 0 0 0 0 0 0 0 0 0 0 0 127 0" result="hardAlpha"/>
<feOffset/>
<feGaussianBlur stdDeviation="5.5"/>
<feColorMatrix type="matrix" values="0 0 0 0 0.117647 0 0 0 0 0.117647 0 0 0 0 0.117647 0 0 0 0.54 0"/>
<feBlend mode="normal" in2="BackgroundImageFix" result="effect1_dropShadow_203_29"/>
<feBlend mode="normal" in="SourceGraphic" in2="effect1_dropShadow_203_29" result="shape"/>
</filter>
<filter id="filter8_d_203_29" x="93" y="84" width="51" height="52" filterUnits="userSpaceOnUse" color-interpolation-filters="sRGB">
<feFlood flood-opacity="0" result="BackgroundImageFix"/>
<feColorMatrix in="SourceAlpha" type="matrix" values="0 0 0 0 0 0 0 0 0 0 0 0 0 0 0 0 0 0 127 0" result="hardAlpha"/>
<feMorphology radius="1" operator="dilate" in="SourceAlpha" result="effect1_dropShadow_203_29"/>
<feOffset/>
<feGaussianBlur stdDeviation="3"/>
<feComposite in2="hardAlpha" operator="out"/>
<feColorMatrix type="matrix" values="0 0 0 0 1 0 0 0 0 0.839216 0 0 0 0 0 0 0 0 0.25 0"/>
<feBlend mode="normal" in2="BackgroundImageFix" result="effect1_dropShadow_203_29"/>
<feBlend mode="normal" in="SourceGraphic" in2="effect1_dropShadow_203_29" result="shape"/>
</filter>
<filter id="filter9_d_203_29" x="362" y="84" width="52" height="52" filterUnits="userSpaceOnUse" color-interpolation-filters="sRGB">
<feFlood flood-opacity="0" result="BackgroundImageFix"/>
<feColorMatrix in="SourceAlpha" type="matrix" values="0 0 0 0 0 0 0 0 0 0 0 0 0 0 0 0 0 0 127 0" result="hardAlpha"/>
<feMorphology radius="1" operator="dilate" in="SourceAlpha" result="effect1_dropShadow_203_29"/>
<feOffset/>
<feGaussianBlur stdDeviation="3"/>
<feComposite in2="hardAlpha" operator="out"/>
<feColorMatrix type="matrix" values="0 0 0 0 1 0 0 0 0 0.839216 0 0 0 0 0 0 0 0 0.25 0"/>
<feBlend mode="normal" in2="BackgroundImageFix" result="effect1_dropShadow_203_29"/>
<feBlend mode="normal" in="SourceGraphic" in2="effect1_dropShadow_203_29" result="shape"/>
</filter>
<filter id="filter10_d_203_29" x="73.0856" y="67.7477" width="26.856" height="28.1131" filterUnits="userSpaceOnUse" color-interpolation-filters="sRGB">
<feFlood flood-opacity="0" result="BackgroundImageFix"/>
<feColorMatrix in="SourceAlpha" type="matrix" values="0 0 0 0 0 0 0 0 0 0 0 0 0 0 0 0 0 0 127 0" result="hardAlpha"/>
<feMorphology radius="1" operator="dilate" in="SourceAlpha" result="effect1_dropShadow_203_29"/>
<feOffset/>
<feGaussianBlur stdDeviation="3"/>
<feComposite in2="hardAlpha" operator="out"/>
<feColorMatrix type="matrix" values="0 0 0 0 1 0 0 0 0 0.839216 0 0 0 0 0 0 0 0 0.25 0"/>
<feBlend mode="normal" in2="BackgroundImageFix" result="effect1_dropShadow_203_29"/>
<feBlend mode="normal" in="SourceGraphic" in2="effect1_dropShadow_203_29" result="shape"/>
</filter>
<filter id="filter11_d_203_29" x="107.516" y="49.3183" width="18.0186" height="31.7252" filterUnits="userSpaceOnUse" color-interpolation-filters="sRGB">
<feFlood flood-opacity="0" result="BackgroundImageFix"/>
<feColorMatrix in="SourceAlpha" type="matrix" values="0 0 0 0 0 0 0 0 0 0 0 0 0 0 0 0 0 0 127 0" result="hardAlpha"/>
<feMorphology radius="1" operator="dilate" in="SourceAlpha" result="effect1_dropShadow_203_29"/>
<feOffset/>
<feGaussianBlur stdDeviation="3"/>
<feComposite in2="hardAlpha" operator="out"/>
<feColorMatrix type="matrix" values="0 0 0 0 1 0 0 0 0 0.839216 0 0 0 0 0 0 0 0 0.25 0"/>
<feBlend mode="normal" in2="BackgroundImageFix" result="effect1_dropShadow_203_29"/>
<feBlend mode="normal" in="SourceGraphic" in2="effect1_dropShadow_203_29" result="shape"/>
</filter>
<filter id="filter12_d_203_29" x="136.198" y="63.222" width="26.467" height="28.3354" filterUnits="userSpaceOnUse" color-interpolation-filters="sRGB">
<feFlood flood-opacity="0" result="BackgroundImageFix"/>
<feColorMatrix in="SourceAlpha" type="matrix" values="0 0 0 0 0 0 0 0 0 0 0 0 0 0 0 0 0 0 127 0" result="hardAlpha"/>
<feMorphology radius="1" operator="dilate" in="SourceAlpha" result="effect1_dropShadow_203_29"/>
<feOffset/>
<feGaussianBlur stdDeviation="3"/>
<feComposite in2="hardAlpha" operator="out"/>
<feColorMatrix type="matrix" values="0 0 0 0 1 0 0 0 0 0.839216 0 0 0 0 0 0 0 0 0.25 0"/>
<feBlend mode="normal" in2="BackgroundImageFix" result="effect1_dropShadow_203_29"/>
<feBlend mode="normal" in="SourceGraphic" in2="effect1_dropShadow_203_29" result="shape"/>
</filter>
<filter id="filter13_d_203_29" x="400.128" y="62.0501" width="26.5349" height="28.3794" filterUnits="userSpaceOnUse" color-interpolation-filters="sRGB">
<feFlood flood-opacity="0" result="BackgroundImageFix"/>
<feColorMatrix in="SourceAlpha" type="matrix" values="0 0 0 0 0 0 0 0 0 0 0 0 0 0 0 0 0 0 127 0" result="hardAlpha"/>
<feMorphology radius="1" operator="dilate" in="SourceAlpha" result="effect1_dropShadow_203_29"/>
<feOffset/>
<feGaussianBlur stdDeviation="3"/>
<feComposite in2="hardAlpha" operator="out"/>
<feColorMatrix type="matrix" values="0 0 0 0 1 0 0 0 0 0.839216 0 0 0 0 0 0 0 0 0.25 0"/>
<feBlend mode="normal" in2="BackgroundImageFix" result="effect1_dropShadow_203_29"/>
<feBlend mode="normal" in="SourceGraphic" in2="effect1_dropShadow_203_29" result="shape"/>
</filter>
<filter id="filter14_d_203_29" x="374.135" y="51.7937" width="17.9962" height="31.7377" filterUnits="userSpaceOnUse" color-interpolation-filters="sRGB">
<feFlood flood-opacity="0" result="BackgroundImageFix"/>
<feColorMatrix in="SourceAlpha" type="matrix" values="0 0 0 0 0 0 0 0 0 0 0 0 0 0 0 0 0 0 127 0" result="hardAlpha"/>
<feMorphology radius="1" operator="dilate" in="SourceAlpha" result="effect1_dropShadow_203_29"/>
<feOffset/>
<feGaussianBlur stdDeviation="3"/>
<feComposite in2="hardAlpha" operator="out"/>
<feColorMatrix type="matrix" values="0 0 0 0 1 0 0 0 0 0.839216 0 0 0 0 0 0 0 0 0.25 0"/>
<feBlend mode="normal" in2="BackgroundImageFix" result="effect1_dropShadow_203_29"/>
<feBlend mode="normal" in="SourceGraphic" in2="effect1_dropShadow_203_29" result="shape"/>
</filter>
<filter id="filter15_d_203_29" x="337.179" y="64.4687" width="26.4099" height="28.4826" filterUnits="userSpaceOnUse" color-interpolation-filters="sRGB">
<feFlood flood-opacity="0" result="BackgroundImageFix"/>
<feColorMatrix in="SourceAlpha" type="matrix" values="0 0 0 0 0 0 0 0 0 0 0 0 0 0 0 0 0 0 127 0" result="hardAlpha"/>
<feMorphology radius="1" operator="dilate" in="SourceAlpha" result="effect1_dropShadow_203_29"/>
<feOffset/>
<feGaussianBlur stdDeviation="3"/>
<feComposite in2="hardAlpha" operator="out"/>
<feColorMatrix type="matrix" values="0 0 0 0 1 0 0 0 0 0.839216 0 0 0 0 0 0 0 0 0.25 0"/>
<feBlend mode="normal" in2="BackgroundImageFix" result="effect1_dropShadow_203_29"/>
<feBlend mode="normal" in="SourceGraphic" in2="effect1_dropShadow_203_29" result="shape"/>
</filter>
<filter id="filter16_d_203_29" x="418.514" y="277.133" width="82.9542" height="87.5056" filterUnits="userSpaceOnUse" color-interpolation-filters="sRGB">
<feFlood flood-opacity="0" result="BackgroundImageFix"/>
<feColorMatrix in="SourceAlpha" type="matrix" values="0 0 0 0 0 0 0 0 0 0 0 0 0 0 0 0 0 0 127 0" result="hardAlpha"/>
<feOffset dx="1" dy="1"/>
<feGaussianBlur stdDeviation="3.5"/>
<feComposite in2="hardAlpha" operator="out"/>
<feColorMatrix type="matrix" values="0 0 0 0 1 0 0 0 0 0.84 0 0 0 0 0 0 0 0 0.5 0"/>
<feBlend mode="normal" in2="BackgroundImageFix" result="effect1_dropShadow_203_29"/>
<feBlend mode="normal" in="SourceGraphic" in2="effect1_dropShadow_203_29" result="shape"/>
</filter>
<filter id="filter17_d_203_29" x="459.904" y="296.997" width="23.1208" height="33.9791" filterUnits="userSpaceOnUse" color-interpolation-filters="sRGB">
<feFlood flood-opacity="0" result="BackgroundImageFix"/>
<feColorMatrix in="SourceAlpha" type="matrix" values="0 0 0 0 0 0 0 0 0 0 0 0 0 0 0 0 0 0 127 0" result="hardAlpha"/>
<feOffset/>
<feGaussianBlur stdDeviation="2"/>
<feComposite in2="hardAlpha" operator="out"/>
<feColorMatrix type="matrix" values="0 0 0 0 0 0 0 0 0 0 0 0 0 0 0 0 0 0 0.69 0"/>
<feBlend mode="normal" in2="BackgroundImageFix" result="effect1_dropShadow_203_29"/>
<feBlend mode="normal" in="SourceGraphic" in2="effect1_dropShadow_203_29" result="shape"/>
</filter>
<filter id="filter18_d_203_29" x="455.473" y="323.955" width="14.3641" height="14.3641" filterUnits="userSpaceOnUse" color-interpolation-filters="sRGB">
<feFlood flood-opacity="0" result="BackgroundImageFix"/>
<feColorMatrix in="SourceAlpha" type="matrix" values="0 0 0 0 0 0 0 0 0 0 0 0 0 0 0 0 0 0 127 0" result="hardAlpha"/>
<feOffset/>
<feGaussianBlur stdDeviation="2"/>
<feComposite in2="hardAlpha" operator="out"/>
<feColorMatrix type="matrix" values="0 0 0 0 0 0 0 0 0 0 0 0 0 0 0 0 0 0 0.69 0"/>
<feBlend mode="normal" in2="BackgroundImageFix" result="effect1_dropShadow_203_29"/>
<feBlend mode="normal" in="SourceGraphic" in2="effect1_dropShadow_203_29" result="shape"/>
</filter>
</defs>
</svg>
